<?xml version="1.0" encoding="utf-8"?>
<!-- Generator: Adobe Illustrator 19.0.1, SVG Export Plug-In . SVG Version: 6.00 Build 0)  -->
<svg version="1.1" id="Layer_1" xmlns="http://www.w3.org/2000/svg" xmlns:xlink="http://www.w3.org/1999/xlink" x="0px" y="0px"
	 viewBox="0 0 260 65" style="enable-background:new 0 0 260 65;" xml:space="preserve">
<style type="text/css">
	.st0{fill:#FFFFFF;}
	.st1{fill:#EE3224;}
</style>
<polygon class="st0" points="104.2,40.6 104.2,26.8 99.2,26.8 99.2,24 112.4,24 112.4,26.8 107.5,26.8 107.5,40.6 "/>
<g>
	<path class="st0" d="M118,31h2.5c1.6,0,2.6-0.1,3-0.2c0.4-0.1,0.7-0.4,0.9-0.7c0.2-0.3,0.3-0.7,0.3-1.2c0-0.6-0.1-1-0.4-1.4
		c-0.3-0.3-0.7-0.6-1.3-0.7c-0.3,0-1.1-0.1-2.5-0.1H118V31z M114.6,40.6V24h7.1c1.8,0,3.1,0.1,3.9,0.4c0.8,0.3,1.5,0.8,1.9,1.6
		c0.5,0.8,0.7,1.6,0.7,2.6c0,1.2-0.4,2.3-1.1,3.1c-0.7,0.8-1.8,1.3-3.3,1.5c0.7,0.4,1.3,0.9,1.8,1.4c0.5,0.5,1.1,1.4,1.9,2.7l2,3.2
		h-4l-2.4-3.6c-0.9-1.3-1.5-2.1-1.8-2.4s-0.7-0.6-1-0.7c-0.4-0.1-0.9-0.2-1.7-0.2H118v6.9H114.6z"/>
	<path class="st0" d="M134.2,32.3c0,1.9,0.4,3.3,1.3,4.3c0.9,1,2,1.5,3.3,1.5c1.3,0,2.4-0.5,3.3-1.4c0.9-1,1.3-2.4,1.3-4.3
		c0-1.9-0.4-3.3-1.3-4.3c-0.8-0.9-1.9-1.4-3.3-1.4c-1.4,0-2.5,0.5-3.4,1.4C134.6,29,134.2,30.4,134.2,32.3 M130.7,32.4
		c0-1.7,0.3-3.1,0.8-4.3c0.4-0.8,0.9-1.6,1.5-2.3c0.7-0.7,1.4-1.2,2.2-1.5c1-0.4,2.2-0.7,3.6-0.7c2.5,0,4.4,0.8,5.9,2.3
		c1.5,1.5,2.2,3.6,2.2,6.3c0,2.7-0.7,4.8-2.2,6.3c-1.5,1.5-3.4,2.3-5.9,2.3c-2.5,0-4.4-0.8-5.9-2.3
		C131.4,37.2,130.7,35.1,130.7,32.4"/>
</g>
<polygon class="st0" points="149.5,40.6 149.5,24 152.8,24 159.6,35.2 159.6,24 162.7,24 162.7,40.6 159.4,40.6 152.6,29.7 
	152.6,40.6 "/>
<g>
	<path class="st0" d="M169.6,31h2.5c1.6,0,2.6-0.1,3-0.2c0.4-0.1,0.7-0.4,0.9-0.7c0.2-0.3,0.3-0.7,0.3-1.2c0-0.6-0.1-1-0.4-1.4
		c-0.3-0.3-0.7-0.6-1.3-0.7c-0.3,0-1.1-0.1-2.5-0.1h-2.6V31z M166.3,40.6V24h7.1c1.8,0,3.1,0.1,3.9,0.4c0.8,0.3,1.5,0.8,1.9,1.6
		c0.5,0.8,0.7,1.6,0.7,2.6c0,1.2-0.4,2.3-1.1,3.1c-0.7,0.8-1.8,1.3-3.3,1.5c0.7,0.4,1.3,0.9,1.8,1.4c0.5,0.5,1.1,1.4,1.9,2.7l2,3.2
		h-4l-2.4-3.6c-0.9-1.3-1.5-2.1-1.8-2.4c-0.3-0.3-0.7-0.6-1-0.7c-0.4-0.1-0.9-0.2-1.7-0.2h-0.7v6.9H166.3z"/>
	<path class="st0" d="M183.1,24h3.4v9c0,1.4,0,2.4,0.1,2.8c0.1,0.7,0.5,1.2,1,1.6c0.5,0.4,1.3,0.6,2.2,0.6c1,0,1.7-0.2,2.2-0.6
		c0.5-0.4,0.8-0.9,0.9-1.4c0.1-0.6,0.1-1.5,0.1-2.8V24h3.4v8.7c0,2-0.1,3.4-0.3,4.2c-0.2,0.8-0.5,1.5-1,2.1c-0.5,0.6-1.1,1-2,1.4
		c-0.8,0.3-1.9,0.5-3.2,0.5c-1.6,0-2.8-0.2-3.6-0.6c-0.8-0.4-1.5-0.8-1.9-1.4c-0.5-0.6-0.8-1.2-0.9-1.8c-0.2-1-0.3-2.4-0.3-4.2V24z"
		/>
	<path class="st0" d="M203.2,26.8v11h2.5c0.9,0,1.6-0.1,2-0.2c0.5-0.1,1-0.4,1.4-0.7c0.4-0.3,0.7-0.9,0.9-1.6c0.2-0.7,0.3-1.8,0.3-3
		s-0.1-2.3-0.3-3c-0.2-0.7-0.5-1.2-1-1.6c-0.4-0.4-0.9-0.6-1.6-0.8c-0.5-0.1-1.4-0.2-2.8-0.2H203.2z M199.8,24h6.1
		c1.4,0,2.4,0.1,3.2,0.3c1,0.3,1.8,0.8,2.5,1.5c0.7,0.7,1.2,1.6,1.6,2.7c0.4,1.1,0.5,2.4,0.5,3.9c0,1.4-0.2,2.5-0.5,3.5
		c-0.4,1.2-1,2.2-1.8,2.9c-0.6,0.6-1.4,1-2.4,1.3c-0.7,0.2-1.7,0.4-3,0.4h-6.3V24z"/>
</g>
<polygon class="st0" points="100.3,48.1 100.3,64.7 113,64.7 113,61.9 103.7,61.9 103.7,57.4 112,57.4 112,54.6 103.7,54.6 
	103.7,50.9 112.6,50.9 112.6,48.1 "/>
<polygon class="st0" points="126,48.1 126,59.3 119.1,48.1 115.8,48.1 115.8,64.7 118.9,64.7 118.9,53.8 125.7,64.7 129.1,64.7 
	129.1,48.1 "/>
<g>
	<path class="st0" d="M140.3,58.6v-2.8h7.2v6.6c-0.7,0.7-1.7,1.3-3.1,1.8c-1.3,0.5-2.7,0.8-4.1,0.8c-1.7,0-3.3-0.4-4.6-1.1
		c-1.3-0.7-2.3-1.8-2.9-3.1c-0.7-1.4-1-2.8-1-4.4c0-1.7,0.4-3.3,1.1-4.6c0.7-1.3,1.8-2.4,3.2-3.1c1.1-0.6,2.4-0.8,4-0.8
		c2.1,0,3.7,0.4,4.8,1.3c1.2,0.9,1.9,2.1,2.2,3.6l-3.3,0.6c-0.2-0.8-0.7-1.5-1.3-1.9c-0.6-0.5-1.5-0.7-2.4-0.7
		c-1.5,0-2.6,0.5-3.5,1.4c-0.9,0.9-1.3,2.3-1.3,4.1c0,2,0.4,3.5,1.3,4.4c0.9,1,2,1.5,3.5,1.5c0.7,0,1.4-0.1,2.1-0.4
		c0.7-0.3,1.3-0.6,1.8-1v-2.1H140.3z"/>
</g>
<rect x="150.6" y="48.1" class="st0" width="3.4" height="16.6"/>
<polygon class="st0" points="167.3,48.1 167.3,59.3 160.4,48.1 157.2,48.1 157.2,64.7 160.3,64.7 160.3,53.8 167.1,64.7 170.4,64.7 
	170.4,48.1 "/>
<polygon class="st0" points="174,48.1 174,64.7 186.6,64.7 186.6,61.9 177.3,61.9 177.3,57.4 185.7,57.4 185.7,54.6 177.3,54.6 
	177.3,50.9 186.3,50.9 186.3,48.1 "/>
<polygon class="st0" points="189.5,48.1 189.5,64.7 202.1,64.7 202.1,61.9 192.8,61.9 192.8,57.4 201.2,57.4 201.2,54.6 192.8,54.6 
	192.8,50.9 201.8,50.9 201.8,48.1 "/>
<g>
	<path class="st0" d="M208.3,55.1h2.5c1.6,0,2.6-0.1,3-0.2c0.4-0.1,0.7-0.4,0.9-0.7c0.2-0.3,0.3-0.7,0.3-1.2c0-0.6-0.1-1-0.4-1.4
		c-0.3-0.3-0.7-0.6-1.3-0.7c-0.3,0-1.1-0.1-2.5-0.1h-2.6V55.1z M205,64.7V48.1h7.1c1.8,0,3.1,0.1,3.9,0.4c0.8,0.3,1.4,0.8,1.9,1.6
		c0.5,0.8,0.7,1.6,0.7,2.6c0,1.2-0.4,2.3-1.1,3.1c-0.7,0.8-1.8,1.3-3.3,1.5c0.7,0.4,1.3,0.9,1.8,1.4c0.5,0.5,1.1,1.4,1.9,2.7l2,3.2
		h-4l-2.4-3.6c-0.9-1.3-1.5-2.1-1.8-2.4s-0.7-0.6-1-0.7c-0.4-0.1-0.9-0.2-1.7-0.2h-0.7v6.9H205z"/>
</g>
<rect x="221.7" y="48.1" class="st0" width="3.4" height="16.6"/>
<polygon class="st0" points="238.4,48.1 238.4,59.3 231.5,48.1 228.2,48.1 228.2,64.7 231.4,64.7 231.4,53.8 238.1,64.7 241.5,64.7 
	241.5,48.1 "/>
<g>
	<path class="st0" d="M252.8,58.6v-2.8h7.2v6.6c-0.7,0.7-1.7,1.3-3.1,1.8c-1.3,0.5-2.7,0.8-4.1,0.8c-1.7,0-3.3-0.4-4.6-1.1
		c-1.3-0.7-2.3-1.8-2.9-3.1c-0.7-1.4-1-2.8-1-4.4c0-1.7,0.4-3.3,1.1-4.6c0.7-1.3,1.8-2.4,3.2-3.1c1.1-0.6,2.4-0.8,4-0.8
		c2.1,0,3.7,0.4,4.8,1.3c1.2,0.9,1.9,2.1,2.2,3.6l-3.3,0.6c-0.2-0.8-0.7-1.5-1.3-1.9c-0.6-0.5-1.5-0.7-2.4-0.7
		c-1.5,0-2.6,0.5-3.5,1.4c-0.9,0.9-1.3,2.3-1.3,4.1c0,2,0.4,3.5,1.3,4.4c0.9,1,2,1.5,3.5,1.5c0.7,0,1.4-0.1,2.1-0.4
		c0.7-0.3,1.3-0.6,1.8-1v-2.1H252.8z"/>
</g>
<rect x="72.7" y="0" class="st1" width="17.4" height="16.5"/>
<rect x="72.7" y="24.1" class="st1" width="17.4" height="16.5"/>
<rect x="72.7" y="48.2" class="st1" width="17.4" height="16.5"/>
<polygon class="st1" points="0,0 48.4,47.3 48.4,64.7 64.9,64.7 64.9,0 "/>
</svg>
